<svg width="18" height="18" viewBox="0 0 18 18" fill="none" xmlns="http://www.w3.org/2000/svg">
<g clip-path="url(#clip0_559_2327)">
<path d="M9 7.5H9.0075M9 10.5H9.0075M9 4.5H9.0075M12 7.5H12.0075M12 10.5H12.0075M12 4.5H12.0075M6 7.5H6.0075M6 10.5H6.0075M6 4.5H6.0075M6.75 16.5V14.25C6.75 13.8361 7.08606 13.5 7.5 13.5H10.5C10.9139 13.5 11.25 13.8361 11.25 14.25V16.5" stroke="#7C3AED" stroke-width="1.5" stroke-linecap="round" stroke-linejoin="round"/>
<path d="M4.5 1.5H13.5C14.3279 1.5 15 2.17213 15 3V15C15 15.8279 14.3279 16.5 13.5 16.5H4.5C3.67213 16.5 3 15.8279 3 15V3C3 2.17213 3.67213 1.5 4.5 1.5V1.5" stroke="#7C3AED" stroke-width="1.5" stroke-linecap="round" stroke-linejoin="round"/>
</g>
<defs>
<clipPath id="clip0_559_2327">
<rect width="18" height="18" fill="white"/>
</clipPath>
</defs>
</svg>
