<svg width="16" height="16" viewBox="0 0 16 16" fill="none" xmlns="http://www.w3.org/2000/svg">
<g clip-path="url(#clip0_1_1251)">
<path d="M2.56667 5.74669C2.3689 4.85585 2.64038 3.92575 3.28631 3.28117C3.93224 2.6366 4.86291 2.36706 5.75333 2.56669C6.24338 1.80028 7.09031 1.33655 8 1.33655C8.90969 1.33655 9.75662 1.80028 10.2467 2.56669C11.1385 2.36618 12.0709 2.63644 12.7172 3.28279C13.3636 3.92915 13.6338 4.86153 13.4333 5.75336C14.1997 6.2434 14.6635 7.09034 14.6635 8.00002C14.6635 8.90971 14.1997 9.75664 13.4333 10.2467C13.633 11.1371 13.3634 12.0678 12.7189 12.7137C12.0743 13.3596 11.1442 13.6311 10.2533 13.4334C9.76389 14.2028 8.91522 14.6687 8.00333 14.6687C7.09144 14.6687 6.24278 14.2028 5.75333 13.4334C4.86291 13.633 3.93224 13.3635 3.28631 12.7189C2.64038 12.0743 2.3689 11.1442 2.56667 10.2534C1.79425 9.76453 1.32604 8.91413 1.32604 8.00002C1.32604 7.08592 1.79425 6.23552 2.56667 5.74669" stroke="#7A6676" stroke-width="1.33333" stroke-linecap="round" stroke-linejoin="round"/>
<path d="M6 7.99996L7.33333 9.33329L10 6.66663" stroke="#7A6676" stroke-width="1.33333" stroke-linecap="round" stroke-linejoin="round"/>
</g>
<defs>
<clipPath id="clip0_1_1251">
<rect width="16" height="16" fill="white"/>
</clipPath>
</defs>
</svg>
