<svg width="18" height="18" viewBox="0 0 18 18" fill="none" xmlns="http://www.w3.org/2000/svg">
<g clip-path="url(#clip0_559_2314)">
<path d="M13.5 6C13.5 8.70975 10.5982 11.5717 9.45525 12.5962C9.18647 12.8015 8.81353 12.8015 8.54475 12.5962C7.4025 11.5717 4.5 8.70975 4.5 6C4.5 3.51638 6.51638 1.5 9 1.5C11.4836 1.5 13.5 3.51638 13.5 6" stroke="#7C3AED" stroke-width="1.5" stroke-linecap="round" stroke-linejoin="round"/>
<path d="M7.5 6C7.5 6.82787 8.17213 7.5 9 7.5C9.82787 7.5 10.5 6.82787 10.5 6C10.5 5.17213 9.82787 4.5 9 4.5C8.17213 4.5 7.5 5.17213 7.5 6V6" stroke="#7C3AED" stroke-width="1.5" stroke-linecap="round" stroke-linejoin="round"/>
<path d="M6.53543 10.5H3.75293C3.43045 10.5001 3.14416 10.7064 3.04193 11.0123L1.53893 15.5122C1.46249 15.7409 1.50067 15.9925 1.64155 16.1882C1.78242 16.3839 2.0088 16.4999 2.24993 16.5H15.7499C15.9909 16.4998 16.2171 16.3839 16.3579 16.1884C16.4987 15.9929 16.5371 15.7416 16.4609 15.513L14.9609 11.013C14.8589 10.7066 14.5721 10.4999 14.2492 10.5H11.4652" stroke="#7C3AED" stroke-width="1.5" stroke-linecap="round" stroke-linejoin="round"/>
</g>
<defs>
<clipPath id="clip0_559_2314">
<rect width="18" height="18" fill="white"/>
</clipPath>
</defs>
</svg>
