<svg width="32" height="32" viewBox="0 0 32 32" fill="none" xmlns="http://www.w3.org/2000/svg">
<path d="M13.3335 16H18.6668M13.3335 10.6667H18.6668M18.6668 28V24C18.6668 22.5282 17.4719 21.3333 16.0002 21.3333C14.5284 21.3333 13.3335 22.5282 13.3335 24V28" stroke="#7C3AED" stroke-width="2.66667" stroke-linecap="round" stroke-linejoin="round"/>
<path d="M8.00008 13.3333H5.33341C3.86164 13.3333 2.66675 14.5282 2.66675 16V25.3333C2.66675 26.8051 3.86164 28 5.33341 28H26.6667C28.1385 28 29.3334 26.8051 29.3334 25.3333V12C29.3334 10.5282 28.1385 9.33333 26.6667 9.33333H24.0001" stroke="#7C3AED" stroke-width="2.66667" stroke-linecap="round" stroke-linejoin="round"/>
<path d="M8 28V6.66667C8 5.19489 9.19489 4 10.6667 4H21.3333C22.8051 4 24 5.19489 24 6.66667V28" stroke="#7C3AED" stroke-width="2.66667" stroke-linecap="round" stroke-linejoin="round"/>
</svg>
