<svg width="28" height="28" viewBox="0 0 28 28" fill="none" xmlns="http://www.w3.org/2000/svg">
<path d="M11.6665 13.9999H16.3332M11.6665 9.33325H16.3332M16.3332 24.4999V20.9999C16.3332 19.7121 15.2876 18.6666 13.9998 18.6666C12.712 18.6666 11.6665 19.7121 11.6665 20.9999V24.4999" stroke="#0F9F7A" stroke-width="2.33333" stroke-linecap="round" stroke-linejoin="round"/>
<path d="M6.99992 11.6667H4.66659C3.37878 11.6667 2.33325 12.7123 2.33325 14.0001V22.1667C2.33325 23.4545 3.37878 24.5001 4.66659 24.5001H23.3333C24.6211 24.5001 25.6666 23.4545 25.6666 22.1667V10.5001C25.6666 9.21228 24.6211 8.16675 23.3333 8.16675H20.9999" stroke="#0F9F7A" stroke-width="2.33333" stroke-linecap="round" stroke-linejoin="round"/>
<path d="M7 24.5V5.83333C7 4.54553 8.04553 3.5 9.33333 3.5H18.6667C19.9545 3.5 21 4.54553 21 5.83333V24.5" stroke="#0F9F7A" stroke-width="2.33333" stroke-linecap="round" stroke-linejoin="round"/>
</svg>
