<svg width="17" height="16" viewBox="0 0 17 16" fill="none" xmlns="http://www.w3.org/2000/svg">
<path d="M7.89511 0.97117C7.96216 0.835714 8.10022 0.75 8.25136 0.75C8.4025 0.75 8.54057 0.835714 8.60761 0.97117L10.3401 4.48042C10.5715 4.94953 11.0188 5.27484 11.5364 5.35042L15.4109 5.91742C15.5606 5.93912 15.6851 6.04397 15.7319 6.18788C15.7787 6.33178 15.7397 6.48978 15.6314 6.59542L12.8294 9.32392C12.4539 9.68926 12.2825 10.2161 12.3711 10.7324L13.0326 14.5874C13.0591 14.7371 12.9978 14.8888 12.8748 14.9782C12.7518 15.0675 12.5886 15.0789 12.4544 15.0074L8.99086 13.1864C8.52767 12.9429 7.97431 12.9429 7.51111 13.1864L4.04836 15.0074C3.91422 15.0784 3.75134 15.0669 3.62858 14.9776C3.50583 14.8883 3.44463 14.7369 3.47086 14.5874L4.13161 10.7332C4.22048 10.2166 4.04906 9.68942 3.67336 9.32392L0.871362 6.59617C0.762096 6.49064 0.722533 6.33206 0.769421 6.18756C0.816309 6.04307 0.941449 5.93794 1.09186 5.91667L4.96561 5.35042C5.48375 5.2753 5.9317 4.94993 6.16336 4.48042L7.89511 0.97117" stroke="#7C3AED" stroke-width="1.5" stroke-linecap="round" stroke-linejoin="round"/>
</svg>
